<svg id="decor-frame" width="658" height="116" viewBox="0 0 658 116" fill="none" xmlns="http://www.w3.org/2000/svg">
    <path d="M329 10H24L20.25 13.75L19 15V33.5V33.5625L11 41.5V57.4688L19 65.4375V82L26 89H329H529H634L639 84V81.375V65.4375L648.251 56.2222L641.5 49.5L648.25 42.75L639 33.5V18.625V20.75V17L632.038 10H329Z" fill="#F7F7FF"/>
    <path d="M329 90H10V49.5V23.4142L17.2071 16.2071L24.4142 9H329H648V41.5858L640.793 48.7929L640.084 49.5014L640.794 50.2085L648 57.3861V75.5858L640.793 82.7929L633.586 90H529H329Z" stroke="url(#paint0_linear_7_76)" stroke-width="2"/>
    <path d="M329 90H10V49.5V23.4142L17.2071 16.2071L24.4142 9H329H648V41.5858L640.793 48.7929L640.084 49.5014L640.794 50.2085L648 57.3861V75.5858L640.793 82.7929L633.586 90H529H329Z" stroke="#C1AC63" stroke-opacity="0.15" stroke-width="2"/>
    <path d="M18 2V33.0858L2.29428 48.7915L2.29289 48.7929L1.58301 49.5L2.29428 50.2085L18 65.8529V82V82.4127L18.2911 82.7053L25.7528 90.2053L33.2146 97.7053L33.5078 98H33.9235H133.959L328.918 113.997L329 114.003L329.082 113.997L524.041 98H639H640V97V81.375V65.8529L655.706 50.2085L656.416 49.5014L655.707 48.7929L640 33.0858V17.625V17V16.5873L639.709 16.2947L632.247 8.7947L624.785 1.2947L624.492 1H624.077H524H134H19H18V2Z" stroke="url(#paint1_linear_7_76)" stroke-width="2"/>
    <path d="M18 2V33.0858L2.29428 48.7915L2.29289 48.7929L1.58301 49.5L2.29428 50.2085L18 65.8529V82V82.4127L18.2911 82.7053L25.7528 90.2053L33.2146 97.7053L33.5078 98H33.9235H133.959L328.918 113.997L329 114.003L329.082 113.997L524.041 98H639H640V97V81.375V65.8529L655.706 50.2085L656.416 49.5014L655.707 48.7929L640 33.0858V17.625V17V16.5873L639.709 16.2947L632.247 8.7947L624.785 1.2947L624.492 1H624.077H524H134H19H18V2Z" stroke="#C1AC63" stroke-opacity="0.15" stroke-width="2"/>
    <defs>
    <linearGradient id="paint0_linear_7_76" x1="12.2" y1="8" x2="42.1124" y2="201.373" gradientUnits="userSpaceOnUse">
        <stop stop-color="#604C2D"/>
        <stop offset="0.244792" stop-color="#705424"/>
        <stop offset="0.526042" stop-color="#C1AC63"/>
        <stop offset="0.65625" stop-color="#FEFAC1"/>
        <stop offset="1" stop-color="#E8C17D"/>
    </linearGradient>
    <linearGradient id="paint1_linear_7_76" x1="6.26" y1="2" x2="42.9899" y2="217.747" gradientUnits="userSpaceOnUse">
        <stop stop-color="#604C2D"/>
        <stop offset="0.244792" stop-color="#705424"/>
        <stop offset="0.526042" stop-color="#C1AC63"/>
        <stop offset="0.65625" stop-color="#FEFAC1"/>
        <stop offset="1" stop-color="#E8C17D"/>
    </linearGradient>
    </defs>
</svg>