<svg width="59" height="64" viewBox="0 0 59 64" fill="none" xmlns="http://www.w3.org/2000/svg">
<path d="M2.65063 39.4842C2.65063 51.6836 14.5182 61.5732 29.1575 61.5732V17.3951C26.2069 17.3951 23.3689 17.7969 20.7179 18.5383C18.8961 19.0479 17.1626 19.7179 15.5416 20.5282C15.464 20.567 15.3866 20.6061 15.3095 20.6456C13.3698 21.6379 11.5951 22.8323 10.0277 24.1938C9.65582 24.5168 9.29561 24.8492 8.94763 25.1906C7.90884 26.2095 6.97905 27.308 6.17327 28.4736C3.93247 31.7149 2.65063 35.4748 2.65063 39.4842Z" fill="#F7F7FF"/>
<path d="M10.4225 7.80264C10.4225 7.80264 8.20621 11.8301 7.28256 14.6072C6.26163 17.6767 6.00915 19.5135 5.65252 22.7286C5.23855 26.4606 5.79832 28.9919 5.79832 28.9919C5.79832 28.9919 5.9347 28.7956 6.17327 28.4736C6.97905 27.308 7.90884 26.2095 8.94763 25.1906C9.27053 24.864 9.60297 24.5498 9.937 24.2644C9.937 24.2644 10.0327 19.9714 10.6272 17.3061C11.167 14.8859 12.6782 11.2969 12.6782 11.2969C12.6782 11.2969 15.6721 12.7564 17.3223 14.2566C18.9905 15.7734 21.1392 18.4057 21.1392 18.4057C21.1392 18.4057 22.3085 18.1264 23.0648 17.9814C23.6903 17.8588 24.3244 17.7547 24.9661 17.6697C24.9661 17.6697 23.4169 15.0198 22.0338 13.5848C20.2126 11.6954 19.015 10.8651 16.5456 9.70748C14.2781 8.64453 10.4225 7.80264 10.4225 7.80264Z" fill="#F7F7FF"/>
<path fill-rule="evenodd" clip-rule="evenodd" d="M12.6782 11.2969C12.6782 11.2969 11.167 14.8859 10.6272 17.3061C10.0327 19.9714 9.937 24.2644 9.937 24.2644C9.937 24.2644 9.96859 24.2396 10.0277 24.1938C11.5947 22.8327 13.3687 21.6386 15.3077 20.6465L15.3095 20.6456C15.3851 20.6064 15.4626 20.5673 15.5416 20.5282C17.1626 19.7179 18.8961 19.0479 20.7179 18.5383C20.9837 18.4532 21.1392 18.4057 21.1392 18.4057C21.1392 18.4057 18.9905 15.7734 17.3223 14.2566C15.6721 12.7564 12.6782 11.2969 12.6782 11.2969Z" fill="#F7F7FF"/>
<path d="M24.9661 17.6697C24.9661 17.6697 23.4169 15.0198 22.0338 13.5848C20.2126 11.6954 19.015 10.8651 16.5456 9.70748C14.2781 8.64453 10.4225 7.80264 10.4225 7.80264C10.4225 7.80264 8.20621 11.8301 7.28256 14.6072C6.26163 17.6767 6.00915 19.5135 5.65252 22.7286C5.23855 26.4606 5.79832 28.9919 5.79832 28.9919C5.79832 28.9919 5.9347 28.7956 6.17327 28.4736M24.9661 17.6697C24.9661 17.6697 23.8038 17.8398 23.0648 17.9814M24.9661 17.6697C24.3244 17.7547 23.6903 17.8588 23.0648 17.9814M9.937 24.2644C9.937 24.2644 10.0327 19.9714 10.6272 17.3061C11.167 14.8859 12.6782 11.2969 12.6782 11.2969C12.6782 11.2969 15.6721 12.7564 17.3223 14.2566C18.9905 15.7734 21.1392 18.4057 21.1392 18.4057M9.937 24.2644C9.937 24.2644 9.96859 24.2396 10.0277 24.1938M9.937 24.2644C9.60297 24.5498 9.27053 24.864 8.94763 25.1906M21.1392 18.4057C21.1392 18.4057 22.3085 18.1264 23.0648 17.9814M21.1392 18.4057C21.1392 18.4057 20.9837 18.4532 20.7179 18.5383M15.3077 20.6465C13.3687 21.6386 11.5947 22.8327 10.0277 24.1938M15.3077 20.6465C13.2878 21.6924 10.5565 23.7838 10.0277 24.1938M15.3077 20.6465L15.3095 20.6456M10.0277 24.1938C9.65582 24.5168 9.29561 24.8492 8.94763 25.1906M10.0277 24.1938C11.5951 22.8323 13.3698 21.6379 15.3095 20.6456M15.5416 20.5282C17.1626 19.7179 18.8961 19.0479 20.7179 18.5383M15.5416 20.5282C17.2608 19.6781 19.7385 18.8522 20.7179 18.5383M15.5416 20.5282C15.4626 20.5673 15.3851 20.6064 15.3095 20.6456M15.5416 20.5282C15.464 20.567 15.3866 20.6061 15.3095 20.6456M20.7179 18.5383C23.3689 17.7969 26.2069 17.3951 29.1575 17.3951V61.5732C14.5182 61.5732 2.65063 51.6836 2.65063 39.4842C2.65063 35.4748 3.93247 31.7149 6.17327 28.4736M6.17327 28.4736C6.97905 27.308 7.90885 26.2095 8.94763 25.1906M6.17327 28.4736C6.71026 27.7487 7.765 26.3865 8.94763 25.1906" stroke="#7878B4" stroke-width="0.3625"/>
<path d="M29.1575 61.5732C43.7968 61.5732 55.6643 51.6836 55.6643 39.4842C55.6643 34.7415 53.8707 30.348 50.818 26.7489C50.8007 26.7285 50.7834 26.7081 50.766 26.6878C49.4342 25.1289 47.8656 23.7202 46.1039 22.4983C46.0916 22.4898 46.0792 22.4812 46.0667 22.4726C44.5353 21.4143 42.8587 20.4969 41.0654 19.7442C41.0573 19.7408 41.0493 19.7374 41.0412 19.7341C39.5997 19.1305 38.083 18.6334 36.5059 18.255C36.5035 18.2544 36.5011 18.2538 36.4987 18.2533C34.1675 17.6945 31.7044 17.3951 29.1575 17.3951V61.5732Z" fill="#33304B"/>
<path fill-rule="evenodd" clip-rule="evenodd" d="M29.1575 61.5732C43.7968 61.5732 55.6643 51.6836 55.6643 39.4842C55.6643 35.9172 54.6498 32.5477 52.848 29.5651C52.848 29.5651 51.695 27.788 50.8222 26.7538C50.8208 26.7522 50.8194 26.7505 50.818 26.7489C50.8007 26.7285 50.7834 26.7081 50.766 26.6878C49.8661 25.6384 48.3371 24.2372 48.3371 24.2372C48.3371 24.2372 47.0123 23.1299 46.1053 22.4993L46.1039 22.4983C46.8878 23.0421 47.6335 23.6228 48.3371 24.2372C48.3371 24.2372 47.8475 20.2128 47.3958 17.5197C46.7674 13.7728 44.8959 8.11773 44.8959 8.11773C44.8959 8.11773 42.9136 11.0056 41.7482 12.9221C40.4398 15.0739 38.528 18.815 38.528 18.815C39.388 19.0859 40.2266 19.393 41.0412 19.7341C41.0493 19.7374 41.0573 19.7408 41.0654 19.7442C42.8587 20.4969 44.5353 21.4143 46.0667 22.4726C46.0792 22.4812 46.0916 22.4898 46.1039 22.4983L46.1053 22.4993C47.0123 23.1299 48.3371 24.2372 48.3371 24.2372C47.6335 23.6228 46.8878 23.0421 46.1039 22.4983C46.0916 22.4898 46.0792 22.4812 46.0667 22.4726C45.1499 21.8403 43.6808 21.0029 43.6808 21.0029C43.6808 21.0029 42.1113 20.184 41.067 19.7449L41.0654 19.7442C41.0573 19.7408 41.0493 19.7374 41.0412 19.7341C40.0662 19.3264 38.528 18.815 38.528 18.815C36.5913 18.2472 34.4517 17.836 34.4423 17.8342C32.7345 17.5463 30.9672 17.3951 29.1575 17.3951V61.5732ZM34.4423 17.8342C34.4517 17.836 36.5913 18.2472 38.528 18.815C38.528 18.815 37.3047 18.447 36.5093 18.2558C36.5082 18.2555 36.507 18.2553 36.5059 18.255C36.5035 18.2544 36.5011 18.2538 36.4987 18.2533C35.7001 18.062 34.4515 17.8359 34.4423 17.8342ZM34.4423 17.8342C35.138 17.9515 35.8239 18.0915 36.4987 18.2533C35.7001 18.062 34.4515 17.8359 34.4423 17.8342Z" fill="#33304B"/>
<path fill-rule="evenodd" clip-rule="evenodd" d="M29.1575 61.5732C43.7968 61.5732 55.6643 51.6836 55.6643 39.4842C55.6643 35.9172 54.6498 32.5477 52.848 29.5651C52.848 29.5651 51.695 27.788 50.8222 26.7538C51.5772 27.6445 52.2552 28.5839 52.848 29.5651C52.848 29.5651 52.7845 26.6742 52.3705 22.9422C52.0139 19.7271 50.7118 13.7809 48.0859 8.52829C47.1335 6.62309 45.3445 3.81311 45.3445 3.81311C45.3445 3.81311 41.4217 7.5618 39.2632 10.2715C37.125 12.9558 34.4423 17.8342 34.4423 17.8342C34.4563 17.8367 35.7017 18.0624 36.4987 18.2533C35.8239 18.0915 35.138 17.9515 34.4423 17.8342C35.138 17.9515 35.8239 18.0915 36.4987 18.2533L36.5059 18.255C37.1917 18.4196 37.8662 18.6066 38.528 18.815C38.528 18.815 40.4398 15.0739 41.7482 12.9221C42.9136 11.0056 44.8959 8.11773 44.8959 8.11773C44.8959 8.11773 46.7674 13.7728 47.3958 17.5197C47.8475 20.2128 48.3371 24.2372 48.3371 24.2372C49.2147 25.0036 50.0269 25.8226 50.766 26.6878C50.7834 26.7081 50.8007 26.7285 50.818 26.7489C50.8194 26.7505 50.8208 26.7522 50.8222 26.7538C50.8208 26.7522 50.8194 26.7505 50.818 26.7489C50.8007 26.7285 50.7834 26.7081 50.766 26.6878C49.8661 25.6384 48.3371 24.2372 48.3371 24.2372C48.3371 24.2372 47.0123 23.1299 46.1053 22.4993L46.1039 22.4983L46.0667 22.4726C45.1499 21.8403 43.6808 21.0029 43.6808 21.0029C43.6808 21.0029 42.1113 20.184 41.067 19.7449L41.0654 19.7442L41.0412 19.7341C40.0691 19.3276 38.537 18.818 38.528 18.815C36.5871 18.246 34.4423 17.8342 34.4423 17.8342C32.7345 17.5463 30.9672 17.3951 29.1575 17.3951V61.5732ZM36.5093 18.2558C37.3047 18.447 38.528 18.815 38.528 18.815C37.8662 18.6066 37.1917 18.4196 36.5059 18.255L36.5093 18.2558Z" fill="#33304B"/>
<path d="M55.6643 39.4842C55.6643 51.6836 43.7968 61.5732 29.1575 61.5732V17.3951M55.6643 39.4842C55.6643 35.9172 54.6498 32.5477 52.848 29.5651M55.6643 39.4842C55.6643 34.7415 53.8707 30.348 50.818 26.7489M29.1575 17.3951C30.9672 17.3951 32.7345 17.5463 34.4423 17.8342M29.1575 17.3951C31.7044 17.3951 34.1675 17.6945 36.4987 18.2533M52.848 29.5651C52.848 29.5651 52.7845 26.6742 52.3705 22.9422C52.0139 19.7271 50.7118 13.7809 48.0859 8.52829C47.1335 6.62309 45.3445 3.81311 45.3445 3.81311C45.3445 3.81311 41.4217 7.5618 39.2632 10.2715C37.125 12.9558 34.4423 17.8342 34.4423 17.8342M52.848 29.5651C52.848 29.5651 51.695 27.788 50.8222 26.7538M52.848 29.5651C52.2552 28.5839 51.5772 27.6445 50.8222 26.7538M34.4423 17.8342C34.4423 17.8342 36.5871 18.246 38.528 18.815M34.4423 17.8342C34.4517 17.836 36.5913 18.2472 38.528 18.815M34.4423 17.8342V17.8342ZM34.4423 17.8342C34.4515 17.8359 35.7001 18.062 36.4987 18.2533M34.4423 17.8342C35.138 17.9515 35.8239 18.0915 36.4987 18.2533M34.4423 17.8342C34.4423 17.8342 35.6972 18.0613 36.4987 18.2533M34.4423 17.8342C34.4563 17.8367 35.7017 18.0624 36.4987 18.2533M48.3371 24.2372C48.3371 24.2372 47.8475 20.2128 47.3958 17.5197C46.7674 13.7728 44.8959 8.11773 44.8959 8.11773C44.8959 8.11773 42.9136 11.0056 41.7482 12.9221C40.4398 15.0739 38.528 18.815 38.528 18.815M48.3371 24.2372C48.3371 24.2372 47.0123 23.1299 46.1053 22.4993M48.3371 24.2372C48.3371 24.2372 49.8661 25.6384 50.766 26.6878M48.3371 24.2372C47.6335 23.6228 46.8878 23.0421 46.1039 22.4983M48.3371 24.2372C49.2147 25.0036 50.0269 25.8226 50.766 26.6878M38.528 18.815C38.528 18.815 37.3047 18.447 36.5093 18.2558M38.528 18.815C39.388 19.0859 40.2266 19.393 41.0412 19.7341M38.528 18.815C38.528 18.815 40.0662 19.3264 41.0412 19.7341M38.528 18.815C37.8662 18.6066 37.1917 18.4196 36.5059 18.255M38.528 18.815C38.537 18.818 40.0691 19.3276 41.0412 19.7341M50.8222 26.7538V26.7538ZM50.8222 26.7538C50.8208 26.7522 50.8194 26.7505 50.818 26.7489M41.067 19.7449C42.1113 20.184 43.6808 21.0029 43.6808 21.0029C43.6808 21.0029 45.1499 21.8403 46.0667 22.4726M41.067 19.7449L41.0654 19.7442M41.067 19.7449L41.0654 19.7442M46.1053 22.4993L46.1039 22.4983M46.1053 22.4993V22.4993ZM46.1053 22.4993L46.1039 22.4983M36.5093 18.2558C36.5082 18.2555 36.507 18.2553 36.5059 18.255M36.5093 18.2558L36.5059 18.255M50.766 26.6878C49.4342 25.1289 47.8656 23.7202 46.1039 22.4983M50.766 26.6878C50.7834 26.7081 50.8007 26.7285 50.818 26.7489M46.1039 22.4983C46.0916 22.4898 46.0792 22.4812 46.0667 22.4726M46.1039 22.4983L46.0667 22.4726M41.0412 19.7341C41.0493 19.7374 41.0573 19.7408 41.0654 19.7442M41.0412 19.7341C39.5997 19.1305 38.083 18.6334 36.5059 18.255M41.0412 19.7341L41.0654 19.7442M41.0654 19.7442C42.8587 20.4969 44.5353 21.4143 46.0667 22.4726M36.5059 18.255C36.5035 18.2544 36.5011 18.2538 36.4987 18.2533M36.5059 18.255L36.4987 18.2533" stroke="#7878B4" stroke-width="0.3625"/>
<path d="M37.2735 53.1828L39.124 51.8568C38.3199 51.6277 37.373 51.3653 36.4878 51.1383L37.2735 53.1828Z" fill="#F7F7FF"/>
<path d="M38.9319 35.6186C38.9319 35.6186 38.4321 36.6997 38.2931 37.4409C38.0495 38.7399 38.1722 39.4591 38.4349 40.7543C38.6275 41.7032 39.2725 43.192 39.2725 43.192C39.2725 43.192 39.8612 42.8902 40.2573 42.7423C40.6985 42.5775 40.9562 42.5087 41.417 42.411C41.8645 42.316 42.1199 42.2705 42.5766 42.2453C42.8673 42.2293 43.4901 42.1711 44.0677 42.2453C44.5968 42.3133 45.0493 42.418 45.5587 42.5766C46.1892 42.773 46.9681 43.192 46.9681 43.192C46.9681 43.192 47.4856 41.9845 47.6677 41.1685C47.7957 40.5946 47.8319 40.2637 47.8775 39.6775C47.9346 38.9449 47.9206 38.5295 47.8775 37.7959C47.8358 37.0854 47.8017 36.6845 47.6677 35.9854C47.5626 35.4377 47.5035 35.1268 47.3179 34.6009C47.1315 34.0732 47.0185 33.7716 46.7183 33.2992C46.5449 33.0262 46.2213 32.6366 46.2213 32.6366L38.9319 35.6186Z" fill="#F7F7FF"/>
<path d="M45.1102 50.8611C45.1102 50.8611 44.4852 52.1069 43.7505 52.4897C42.8325 52.9681 41.1004 52.4343 41.1004 52.4343C41.1004 52.4343 40.2529 52.1784 39.124 51.8568M29.2234 49.866C29.2234 49.866 32.7562 50.2799 35.1688 50.8189C35.5713 50.9088 36.021 51.0187 36.4878 51.1383M39.124 51.8568L37.2735 53.1828L36.4878 51.1383M39.124 51.8568C38.3199 51.6277 37.373 51.3653 36.4878 51.1383M38.9319 35.6186L36.4469 36.7783L32.6366 38.6006L31.4769 37.2753M38.9319 35.6186C38.9319 35.6186 38.4321 36.6997 38.2931 37.4409C38.0495 38.7399 38.1722 39.4591 38.4349 40.7543C38.6275 41.7032 39.2725 43.192 39.2725 43.192C39.2725 43.192 39.8612 42.8902 40.2573 42.7423C40.6985 42.5775 40.9562 42.5087 41.417 42.411C41.8645 42.316 42.1199 42.2705 42.5766 42.2453C42.8673 42.2293 43.4901 42.1711 44.0677 42.2453C44.5968 42.3133 45.0493 42.418 45.5587 42.5766C46.1892 42.773 46.9681 43.192 46.9681 43.192C46.9681 43.192 47.4856 41.9845 47.6677 41.1685C47.7957 40.5946 47.8319 40.2637 47.8775 39.6775C47.9346 38.9449 47.9206 38.5295 47.8775 37.7959C47.8358 37.0854 47.8017 36.6845 47.6677 35.9854C47.5626 35.4377 47.5035 35.1268 47.3179 34.6009C47.1315 34.0732 47.0185 33.7716 46.7183 33.2992C46.5449 33.0262 46.2213 32.6366 46.2213 32.6366M38.9319 35.6186L46.2213 32.6366M46.2213 32.6366L47.0497 32.3052L48.872 31.6426M45.5387 28.297C45.5387 28.297 45.9674 28.3606 46.1782 28.2236C46.3266 28.127 46.4006 28.0357 46.4614 27.8694C46.5971 27.4986 46.0324 26.9539 46.0324 26.9539M47.3112 26.8071C47.3112 26.8071 47.4165 27.4187 47.6337 27.7349C47.7188 27.8588 47.7548 27.9498 47.8832 28.0278C48.1339 28.18 48.6292 27.9422 48.6292 27.9422M48.7021 28.577C48.7021 28.577 48.1658 28.4577 47.9561 28.6627C47.8487 28.7677 47.8014 28.8559 47.7794 29.0046C47.7269 29.3593 48.3973 29.684 48.3973 29.684M47.0119 29.8431C47.0119 29.8431 47.2039 29.0583 46.8904 28.785C46.7768 28.686 46.6923 28.6478 46.5464 28.6101C46.1727 28.5133 45.6116 28.9318 45.6116 28.9318" stroke="#F7F7FF" stroke-width="0.3625"/>
<path d="M20.4663 50.8664L19.0383 49.0935C19.8743 49.088 20.8569 49.0886 21.7706 49.1069L20.4663 50.8664Z" fill="#33304B"/>
<path d="M13.5369 46.5321C13.5369 46.5321 13.8057 47.8996 14.4112 48.4652C15.1677 49.1717 16.9794 49.121 16.9794 49.121C16.9794 49.121 17.8644 49.1013 19.0383 49.0935M29.1105 49.8252C29.1105 49.8252 25.5958 49.2785 23.1269 49.1521C22.715 49.131 22.2524 49.1165 21.7706 49.1069M19.0383 49.0935L20.4663 50.8664L21.7706 49.1069M19.0383 49.0935C19.8743 49.088 20.8569 49.0886 21.7706 49.1069M10.1057 38.9319C10.1057 38.9319 14.11 36.361 18.0578 36.4469C21.7605 36.5275 25.6785 39.2633 25.6785 39.2633" stroke="#333333" stroke-width="0.3625"/>
<path d="M29.1576 10.2241L26.5542 13.4428L27.1695 15.9041L29.1576 17.0401V13.6321V10.2241Z" fill="#F7F7FF" stroke="#7878B4" stroke-width="0.3625" stroke-linejoin="round"/>
<path d="M29.2523 7.95206L25.8442 10.2241L26.6489 13.4428L29.2523 10.2241V7.95206Z" fill="#F7F7FF" stroke="#7878B4" stroke-width="0.3625" stroke-linejoin="round"/>
<path d="M25.7495 10.2241L23.8562 14.0108L27.1696 15.9041L26.5542 13.4428L25.7495 10.2241Z" fill="#F7F7FF" stroke="#7878B4" stroke-width="0.3625" stroke-linejoin="round"/>
<path d="M23.8562 14.0108L29.1576 23.8562L27.1696 15.9041L23.8562 14.0108Z" fill="#33304B" stroke="#7878B4" stroke-width="0.3625" stroke-linejoin="round"/>
<path d="M29.1576 23.8562V17.0401L27.1696 15.9041L29.1576 23.8562Z" fill="#33304B" stroke="#7878B4" stroke-width="0.3625"/>
<path d="M29.1576 23.8561L34.459 14.0107L31.1456 15.9041L29.1576 23.8561Z" fill="#F7F7FF" stroke="#7878B4" stroke-width="0.3625" stroke-linejoin="round"/>
<path d="M29.1576 17.0401V23.8561L31.1456 15.9041L29.1576 17.0401Z" fill="#F7F7FF" stroke="#7878B4" stroke-width="0.3625"/>
<path d="M29.1576 13.6321V17.0401L31.1456 15.9041L29.1576 13.6321Z" fill="#33304B" stroke="#7878B4" stroke-width="0.3625"/>
<path d="M34.459 14.0108L32.5656 10.2241L31.1456 15.9041L34.459 14.0108Z" fill="#33304B" stroke="#7878B4" stroke-width="0.3625" stroke-linejoin="round"/>
<path d="M29.1576 7.95206V10.2241V13.6321L31.1456 15.9041L32.5656 10.2241L29.1576 7.95206Z" fill="#33304B" stroke="#7878B4" stroke-width="0.3625" stroke-linejoin="round"/>
</svg>
