<svg width="102" height="197" viewBox="0 0 102 197" fill="none" xmlns="http://www.w3.org/2000/svg">
<path d="M101.75 1C101.75 0.585786 101.414 0.25 101 0.25C100.586 0.25 100.25 0.585786 100.25 1H101.75ZM1.75 1C1.75 0.585786 1.41421 0.25 1 0.25C0.585786 0.25 0.25 0.585786 0.25 1H1.75ZM16.3012 37L15.7807 37.5399L15.7807 37.5399L16.3012 37ZM100.25 1C100.25 28.2 78.2 50.25 51 50.25V51.75C79.0284 51.75 101.75 29.0284 101.75 1H100.25ZM66.25 179.5C66.25 187.922 59.4223 194.75 51 194.75V196.25C60.2508 196.25 67.75 188.751 67.75 179.5H66.25ZM51 194.75C42.5777 194.75 35.75 187.922 35.75 179.5H34.25C34.25 188.751 41.7492 196.25 51 196.25V194.75ZM35.75 179.5C35.75 171.078 42.5777 164.25 51 164.25V162.75C41.7492 162.75 34.25 170.249 34.25 179.5H35.75ZM51 164.25C59.4223 164.25 66.25 171.078 66.25 179.5H67.75C67.75 170.249 60.2508 162.75 51 162.75V164.25ZM66.25 131C66.25 139.422 59.4223 146.25 51 146.25V147.75C60.2508 147.75 67.75 140.251 67.75 131H66.25ZM51 146.25C42.5777 146.25 35.75 139.422 35.75 131H34.25C34.25 140.251 41.7492 147.75 51 147.75V146.25ZM35.75 131C35.75 122.578 42.5777 115.75 51 115.75V114.25C41.7492 114.25 34.25 121.749 34.25 131H35.75ZM51 115.75C59.4223 115.75 66.25 122.578 66.25 131H67.75C67.75 121.749 60.2508 114.25 51 114.25V115.75ZM66.25 83C66.25 91.4223 59.4223 98.25 51 98.25V99.75C60.2508 99.75 67.75 92.2508 67.75 83H66.25ZM51 98.25C42.5777 98.25 35.75 91.4223 35.75 83H34.25C34.25 92.2508 41.7492 99.75 51 99.75V98.25ZM35.75 83C35.75 74.5777 42.5777 67.75 51 67.75V66.25C41.7492 66.25 34.25 73.7492 34.25 83H35.75ZM51 67.75C59.4223 67.75 66.25 74.5777 66.25 83H67.75C67.75 73.7492 60.2508 66.25 51 66.25V67.75ZM50.25 51V67H51.75V51H50.25ZM50.25 147V163.5H51.75V147H50.25ZM50.25 99V115H51.75V99H50.25ZM51 50.25C37.7257 50.25 25.6792 44.9994 16.8218 36.4601L15.7807 37.5399C24.9065 46.3379 37.322 51.75 51 51.75V50.25ZM16.8218 36.4601C7.52903 27.5012 1.75 14.9261 1.75 1H0.25C0.25 15.35 6.20684 28.31 15.7807 37.5399L16.8218 36.4601Z" fill="url(#paint0_linear_323_526)"/>
<path d="M101.75 1C101.75 0.585786 101.414 0.25 101 0.25C100.586 0.25 100.25 0.585786 100.25 1H101.75ZM1.75 1C1.75 0.585786 1.41421 0.25 1 0.25C0.585786 0.25 0.25 0.585786 0.25 1H1.75ZM16.3012 37L15.7807 37.5399L15.7807 37.5399L16.3012 37ZM100.25 1C100.25 28.2 78.2 50.25 51 50.25V51.75C79.0284 51.75 101.75 29.0284 101.75 1H100.25ZM66.25 179.5C66.25 187.922 59.4223 194.75 51 194.75V196.25C60.2508 196.25 67.75 188.751 67.75 179.5H66.25ZM51 194.75C42.5777 194.75 35.75 187.922 35.75 179.5H34.25C34.25 188.751 41.7492 196.25 51 196.25V194.75ZM35.75 179.5C35.75 171.078 42.5777 164.25 51 164.25V162.75C41.7492 162.75 34.25 170.249 34.25 179.5H35.75ZM51 164.25C59.4223 164.25 66.25 171.078 66.25 179.5H67.75C67.75 170.249 60.2508 162.75 51 162.75V164.25ZM66.25 131C66.25 139.422 59.4223 146.25 51 146.25V147.75C60.2508 147.75 67.75 140.251 67.75 131H66.25ZM51 146.25C42.5777 146.25 35.75 139.422 35.75 131H34.25C34.25 140.251 41.7492 147.75 51 147.75V146.25ZM35.75 131C35.75 122.578 42.5777 115.75 51 115.75V114.25C41.7492 114.25 34.25 121.749 34.25 131H35.75ZM51 115.75C59.4223 115.75 66.25 122.578 66.25 131H67.75C67.75 121.749 60.2508 114.25 51 114.25V115.75ZM66.25 83C66.25 91.4223 59.4223 98.25 51 98.25V99.75C60.2508 99.75 67.75 92.2508 67.75 83H66.25ZM51 98.25C42.5777 98.25 35.75 91.4223 35.75 83H34.25C34.25 92.2508 41.7492 99.75 51 99.75V98.25ZM35.75 83C35.75 74.5777 42.5777 67.75 51 67.75V66.25C41.7492 66.25 34.25 73.7492 34.25 83H35.75ZM51 67.75C59.4223 67.75 66.25 74.5777 66.25 83H67.75C67.75 73.7492 60.2508 66.25 51 66.25V67.75ZM50.25 51V67H51.75V51H50.25ZM50.25 147V163.5H51.75V147H50.25ZM50.25 99V115H51.75V99H50.25ZM51 50.25C37.7257 50.25 25.6792 44.9994 16.8218 36.4601L15.7807 37.5399C24.9065 46.3379 37.322 51.75 51 51.75V50.25ZM16.8218 36.4601C7.52903 27.5012 1.75 14.9261 1.75 1H0.25C0.25 15.35 6.20684 28.31 15.7807 37.5399L16.8218 36.4601Z" fill="#C1AC63" fill-opacity="0.15"/>
<defs>
<linearGradient id="paint0_linear_323_526" x1="1.5" y1="1" x2="159.685" y2="82.3293" gradientUnits="userSpaceOnUse">
<stop stop-color="#604C2D"/>
<stop offset="0.244792" stop-color="#705424"/>
<stop offset="0.526042" stop-color="#C1AC63"/>
<stop offset="0.65625" stop-color="#FEFAC1"/>
<stop offset="1" stop-color="#E8C17D"/>
</linearGradient>
</defs>
</svg>
