<svg width="367" height="335" viewBox="0 0 367 335" fill="none" xmlns="http://www.w3.org/2000/svg">
<path d="M92 5L88 1H52H9V326M92 5L96 9H140M92 5H136L140 9M92 5H52H5V330H354.5L362 322V9M140 9H186H231M279 5L283 1H320H358V5M279 5L275 9H231M279 5H235L231 9M279 5H320H358M9 326V334H1V326H5H9ZM9 326H366V9H362M358 5H362V9" stroke="url(#paint0_linear_69_415)"/>
<path d="M92 5L88 1H52H9V326M92 5L96 9H140M92 5H136L140 9M92 5H52H5V330H354.5L362 322V9M140 9H186H231M279 5L283 1H320H358V5M279 5L275 9H231M279 5H235L231 9M279 5H320H358M9 326V334H1V326H5H9ZM9 326H366V9H362M358 5H362V9" stroke="#C1AC63" stroke-opacity="0.15"/>
<defs>
<linearGradient id="paint0_linear_69_415" x1="2.825" y1="1" x2="334.428" y2="364.469" gradientUnits="userSpaceOnUse">
<stop stop-color="#604C2D"/>
<stop offset="0.244792" stop-color="#705424"/>
<stop offset="0.526042" stop-color="#C1AC63"/>
<stop offset="0.65625" stop-color="#FEFAC1"/>
<stop offset="1" stop-color="#E8C17D"/>
</linearGradient>
</defs>
</svg>
