<svg width="278" height="211" viewBox="0 0 278 211" fill="none" xmlns="http://www.w3.org/2000/svg">
<path d="M261 105H261.75V104.25H261V105ZM165 105V104.25H164.25V105H165ZM101.75 15C101.75 14.5858 101.414 14.25 101 14.25C100.586 14.25 100.25 14.5858 100.25 15H101.75ZM1.75 15C1.75 14.5858 1.41421 14.25 1 14.25C0.585786 14.25 0.25 14.5858 0.25 15H1.75ZM16.3012 51L15.7807 51.5399L16.3012 51ZM260.25 105V121H261.75V105H260.25ZM164.25 105V121H165.75V105H164.25ZM165 105.75H213V104.25H165V105.75ZM213 105.75L261 105.75V104.25L213 104.25V105.75ZM212.25 105V121H213.75V105H212.25ZM212.75 33V49H214.25V33H212.75ZM100.25 15C100.25 42.2 78.2 64.25 51 64.25V65.75C79.0285 65.75 101.75 43.0285 101.75 15H100.25ZM245.75 137C245.75 128.578 252.578 121.75 261 121.75V120.25C251.749 120.25 244.25 127.749 244.25 137H245.75ZM261 121.75C269.422 121.75 276.25 128.578 276.25 137H277.75C277.75 127.749 270.251 120.25 261 120.25V121.75ZM276.25 137C276.25 145.422 269.422 152.25 261 152.25V153.75C270.251 153.75 277.75 146.251 277.75 137H276.25ZM261 152.25C252.578 152.25 245.75 145.422 245.75 137H244.25C244.25 146.251 251.749 153.75 261 153.75V152.25ZM197.75 137C197.75 128.578 204.578 121.75 213 121.75V120.25C203.749 120.25 196.25 127.749 196.25 137H197.75ZM213 121.75C221.422 121.75 228.25 128.578 228.25 137H229.75C229.75 127.749 222.251 120.25 213 120.25V121.75ZM228.25 137C228.25 145.422 221.422 152.25 213 152.25V153.75C222.251 153.75 229.75 146.251 229.75 137H228.25ZM213 152.25C204.578 152.25 197.75 145.422 197.75 137H196.25C196.25 146.251 203.749 153.75 213 153.75V152.25ZM149.75 137C149.75 128.578 156.578 121.75 165 121.75V120.25C155.749 120.25 148.25 127.749 148.25 137H149.75ZM165 121.75C173.422 121.75 180.25 128.578 180.25 137H181.75C181.75 127.749 174.251 120.25 165 120.25V121.75ZM180.25 137C180.25 145.422 173.422 152.25 165 152.25V153.75C174.251 153.75 181.75 146.251 181.75 137H180.25ZM165 152.25C156.578 152.25 149.75 145.422 149.75 137H148.25C148.25 146.251 155.749 153.75 165 153.75V152.25ZM228.75 17C228.75 25.4223 221.922 32.25 213.5 32.25V33.75C222.751 33.75 230.25 26.2508 230.25 17H228.75ZM213.5 32.25C205.078 32.25 198.25 25.4223 198.25 17H196.75C196.75 26.2508 204.249 33.75 213.5 33.75V32.25ZM198.25 17C198.25 8.57766 205.078 1.75 213.5 1.75V0.25C204.249 0.25 196.75 7.74923 196.75 17H198.25ZM213.5 1.75C221.922 1.75 228.75 8.57766 228.75 17H230.25C230.25 7.74923 222.751 0.25 213.5 0.25V1.75ZM228.75 65C228.75 73.4223 221.922 80.25 213.5 80.25V81.75C222.751 81.75 230.25 74.2508 230.25 65H228.75ZM213.5 80.25C205.078 80.25 198.25 73.4223 198.25 65H196.75C196.75 74.2508 204.249 81.75 213.5 81.75V80.25ZM198.25 65C198.25 56.5777 205.078 49.75 213.5 49.75V48.25C204.249 48.25 196.75 55.7492 196.75 65H198.25ZM213.5 49.75C221.922 49.75 228.75 56.5777 228.75 65H230.25C230.25 55.7492 222.751 48.25 213.5 48.25V49.75ZM66.25 193.5C66.25 201.922 59.4223 208.75 51 208.75V210.25C60.2508 210.25 67.75 202.751 67.75 193.5H66.25ZM51 208.75C42.5777 208.75 35.75 201.922 35.75 193.5H34.25C34.25 202.751 41.7492 210.25 51 210.25V208.75ZM35.75 193.5C35.75 185.078 42.5777 178.25 51 178.25V176.75C41.7492 176.75 34.25 184.249 34.25 193.5H35.75ZM51 178.25C59.4223 178.25 66.25 185.078 66.25 193.5H67.75C67.75 184.249 60.2508 176.75 51 176.75V178.25ZM66.25 145C66.25 153.422 59.4223 160.25 51 160.25V161.75C60.2508 161.75 67.75 154.251 67.75 145H66.25ZM51 160.25C42.5777 160.25 35.75 153.422 35.75 145H34.25C34.25 154.251 41.7492 161.75 51 161.75V160.25ZM35.75 145C35.75 136.578 42.5777 129.75 51 129.75V128.25C41.7492 128.25 34.25 135.749 34.25 145H35.75ZM51 129.75C59.4223 129.75 66.25 136.578 66.25 145H67.75C67.75 135.749 60.2508 128.25 51 128.25V129.75ZM66.25 97C66.25 105.422 59.4223 112.25 51 112.25V113.75C60.2508 113.75 67.75 106.251 67.75 97H66.25ZM51 112.25C42.5777 112.25 35.75 105.422 35.75 97H34.25C34.25 106.251 41.7492 113.75 51 113.75V112.25ZM35.75 97C35.75 88.5777 42.5777 81.75 51 81.75V80.25C41.7492 80.25 34.25 87.7492 34.25 97H35.75ZM51 81.75C59.4223 81.75 66.25 88.5777 66.25 97H67.75C67.75 87.7492 60.2508 80.25 51 80.25V81.75ZM50.25 65V81H51.75V65H50.25ZM50.25 161V177.5H51.75V161H50.25ZM50.25 113V129H51.75V113H50.25ZM51 64.25C37.7257 64.25 25.6792 58.9994 16.8218 50.4601L15.7807 51.5399C24.9065 60.3379 37.322 65.75 51 65.75V64.25ZM16.8218 50.4601C7.52903 41.5012 1.75 28.9261 1.75 15H0.25C0.25 29.35 6.20684 42.31 15.7807 51.5399L16.8218 50.4601Z" fill="url(#paint0_linear_69_448)"/>
<path d="M261 105H261.75V104.25H261V105ZM165 105V104.25H164.25V105H165ZM101.75 15C101.75 14.5858 101.414 14.25 101 14.25C100.586 14.25 100.25 14.5858 100.25 15H101.75ZM1.75 15C1.75 14.5858 1.41421 14.25 1 14.25C0.585786 14.25 0.25 14.5858 0.25 15H1.75ZM16.3012 51L15.7807 51.5399L16.3012 51ZM260.25 105V121H261.75V105H260.25ZM164.25 105V121H165.75V105H164.25ZM165 105.75H213V104.25H165V105.75ZM213 105.75L261 105.75V104.25L213 104.25V105.75ZM212.25 105V121H213.75V105H212.25ZM212.75 33V49H214.25V33H212.75ZM100.25 15C100.25 42.2 78.2 64.25 51 64.25V65.75C79.0285 65.75 101.75 43.0285 101.75 15H100.25ZM245.75 137C245.75 128.578 252.578 121.75 261 121.75V120.25C251.749 120.25 244.25 127.749 244.25 137H245.75ZM261 121.75C269.422 121.75 276.25 128.578 276.25 137H277.75C277.75 127.749 270.251 120.25 261 120.25V121.75ZM276.25 137C276.25 145.422 269.422 152.25 261 152.25V153.75C270.251 153.75 277.75 146.251 277.75 137H276.25ZM261 152.25C252.578 152.25 245.75 145.422 245.75 137H244.25C244.25 146.251 251.749 153.75 261 153.75V152.25ZM197.75 137C197.75 128.578 204.578 121.75 213 121.75V120.25C203.749 120.25 196.25 127.749 196.25 137H197.75ZM213 121.75C221.422 121.75 228.25 128.578 228.25 137H229.75C229.75 127.749 222.251 120.25 213 120.25V121.75ZM228.25 137C228.25 145.422 221.422 152.25 213 152.25V153.75C222.251 153.75 229.75 146.251 229.75 137H228.25ZM213 152.25C204.578 152.25 197.75 145.422 197.75 137H196.25C196.25 146.251 203.749 153.75 213 153.75V152.25ZM149.75 137C149.75 128.578 156.578 121.75 165 121.75V120.25C155.749 120.25 148.25 127.749 148.25 137H149.75ZM165 121.75C173.422 121.75 180.25 128.578 180.25 137H181.75C181.75 127.749 174.251 120.25 165 120.25V121.75ZM180.25 137C180.25 145.422 173.422 152.25 165 152.25V153.75C174.251 153.75 181.75 146.251 181.75 137H180.25ZM165 152.25C156.578 152.25 149.75 145.422 149.75 137H148.25C148.25 146.251 155.749 153.75 165 153.75V152.25ZM228.75 17C228.75 25.4223 221.922 32.25 213.5 32.25V33.75C222.751 33.75 230.25 26.2508 230.25 17H228.75ZM213.5 32.25C205.078 32.25 198.25 25.4223 198.25 17H196.75C196.75 26.2508 204.249 33.75 213.5 33.75V32.25ZM198.25 17C198.25 8.57766 205.078 1.75 213.5 1.75V0.25C204.249 0.25 196.75 7.74923 196.75 17H198.25ZM213.5 1.75C221.922 1.75 228.75 8.57766 228.75 17H230.25C230.25 7.74923 222.751 0.25 213.5 0.25V1.75ZM228.75 65C228.75 73.4223 221.922 80.25 213.5 80.25V81.75C222.751 81.75 230.25 74.2508 230.25 65H228.75ZM213.5 80.25C205.078 80.25 198.25 73.4223 198.25 65H196.75C196.75 74.2508 204.249 81.75 213.5 81.75V80.25ZM198.25 65C198.25 56.5777 205.078 49.75 213.5 49.75V48.25C204.249 48.25 196.75 55.7492 196.75 65H198.25ZM213.5 49.75C221.922 49.75 228.75 56.5777 228.75 65H230.25C230.25 55.7492 222.751 48.25 213.5 48.25V49.75ZM66.25 193.5C66.25 201.922 59.4223 208.75 51 208.75V210.25C60.2508 210.25 67.75 202.751 67.75 193.5H66.25ZM51 208.75C42.5777 208.75 35.75 201.922 35.75 193.5H34.25C34.25 202.751 41.7492 210.25 51 210.25V208.75ZM35.75 193.5C35.75 185.078 42.5777 178.25 51 178.25V176.75C41.7492 176.75 34.25 184.249 34.25 193.5H35.75ZM51 178.25C59.4223 178.25 66.25 185.078 66.25 193.5H67.75C67.75 184.249 60.2508 176.75 51 176.75V178.25ZM66.25 145C66.25 153.422 59.4223 160.25 51 160.25V161.75C60.2508 161.75 67.75 154.251 67.75 145H66.25ZM51 160.25C42.5777 160.25 35.75 153.422 35.75 145H34.25C34.25 154.251 41.7492 161.75 51 161.75V160.25ZM35.75 145C35.75 136.578 42.5777 129.75 51 129.75V128.25C41.7492 128.25 34.25 135.749 34.25 145H35.75ZM51 129.75C59.4223 129.75 66.25 136.578 66.25 145H67.75C67.75 135.749 60.2508 128.25 51 128.25V129.75ZM66.25 97C66.25 105.422 59.4223 112.25 51 112.25V113.75C60.2508 113.75 67.75 106.251 67.75 97H66.25ZM51 112.25C42.5777 112.25 35.75 105.422 35.75 97H34.25C34.25 106.251 41.7492 113.75 51 113.75V112.25ZM35.75 97C35.75 88.5777 42.5777 81.75 51 81.75V80.25C41.7492 80.25 34.25 87.7492 34.25 97H35.75ZM51 81.75C59.4223 81.75 66.25 88.5777 66.25 97H67.75C67.75 87.7492 60.2508 80.25 51 80.25V81.75ZM50.25 65V81H51.75V65H50.25ZM50.25 161V177.5H51.75V161H50.25ZM50.25 113V129H51.75V113H50.25ZM51 64.25C37.7257 64.25 25.6792 58.9994 16.8218 50.4601L15.7807 51.5399C24.9065 60.3379 37.322 65.75 51 65.75V64.25ZM16.8218 50.4601C7.52903 41.5012 1.75 28.9261 1.75 15H0.25C0.25 29.35 6.20684 42.31 15.7807 51.5399L16.8218 50.4601Z" fill="#C1AC63" fill-opacity="0.15"/>
<defs>
<linearGradient id="paint0_linear_69_448" x1="2.38" y1="1" x2="202.94" y2="266.49" gradientUnits="userSpaceOnUse">
<stop stop-color="#604C2D"/>
<stop offset="0.244792" stop-color="#705424"/>
<stop offset="0.526042" stop-color="#C1AC63"/>
<stop offset="0.65625" stop-color="#FEFAC1"/>
<stop offset="1" stop-color="#E8C17D"/>
</linearGradient>
</defs>
</svg>
