<svg width="130" height="50" viewBox="0 0 130 50" fill="none" xmlns="http://www.w3.org/2000/svg">
<path d="M113 1H113.75V0.25L113 0.25L113 1ZM17 1.00002V0.250015H16.25V1.00002H17ZM112.25 1V17H113.75V1H112.25ZM16.25 1.00002V17H17.75V1.00002H16.25ZM17 1.75002H65V0.250015H17V1.75002ZM65 1.75002L113 1.75L113 0.25L65 0.250015L65 1.75002ZM64.25 1.00002V17H65.75V1.00002H64.25ZM97.75 33C97.75 24.5777 104.578 17.75 113 17.75V16.25C103.749 16.25 96.25 23.7492 96.25 33H97.75ZM113 17.75C121.422 17.75 128.25 24.5777 128.25 33H129.75C129.75 23.7492 122.251 16.25 113 16.25V17.75ZM128.25 33C128.25 41.4224 121.422 48.25 113 48.25V49.75C122.251 49.75 129.75 42.2508 129.75 33H128.25ZM113 48.25C104.578 48.25 97.75 41.4224 97.75 33H96.25C96.25 42.2508 103.749 49.75 113 49.75V48.25ZM49.75 33C49.75 24.5777 56.5777 17.75 65 17.75V16.25C55.7492 16.25 48.25 23.7492 48.25 33H49.75ZM65 17.75C73.4223 17.75 80.25 24.5777 80.25 33H81.75C81.75 23.7492 74.2508 16.25 65 16.25V17.75ZM80.25 33C80.25 41.4224 73.4223 48.25 65 48.25V49.75C74.2508 49.75 81.75 42.2508 81.75 33H80.25ZM65 48.25C56.5777 48.25 49.75 41.4224 49.75 33H48.25C48.25 42.2508 55.7492 49.75 65 49.75V48.25ZM1.75 33C1.75 24.5777 8.57766 17.75 17 17.75V16.25C7.74923 16.25 0.25 23.7492 0.25 33H1.75ZM17 17.75C25.4223 17.75 32.25 24.5777 32.25 33H33.75C33.75 23.7492 26.2508 16.25 17 16.25V17.75ZM32.25 33C32.25 41.4224 25.4223 48.25 17 48.25V49.75C26.2508 49.75 33.75 42.2508 33.75 33H32.25ZM17 48.25C8.57766 48.25 1.75 41.4224 1.75 33H0.25C0.25 42.2508 7.74923 49.75 17 49.75V48.25Z" fill="url(#paint0_linear_323_527)"/>
<path d="M113 1H113.75V0.25L113 0.25L113 1ZM17 1.00002V0.250015H16.25V1.00002H17ZM112.25 1V17H113.75V1H112.25ZM16.25 1.00002V17H17.75V1.00002H16.25ZM17 1.75002H65V0.250015H17V1.75002ZM65 1.75002L113 1.75L113 0.25L65 0.250015L65 1.75002ZM64.25 1.00002V17H65.75V1.00002H64.25ZM97.75 33C97.75 24.5777 104.578 17.75 113 17.75V16.25C103.749 16.25 96.25 23.7492 96.25 33H97.75ZM113 17.75C121.422 17.75 128.25 24.5777 128.25 33H129.75C129.75 23.7492 122.251 16.25 113 16.25V17.75ZM128.25 33C128.25 41.4224 121.422 48.25 113 48.25V49.75C122.251 49.75 129.75 42.2508 129.75 33H128.25ZM113 48.25C104.578 48.25 97.75 41.4224 97.75 33H96.25C96.25 42.2508 103.749 49.75 113 49.75V48.25ZM49.75 33C49.75 24.5777 56.5777 17.75 65 17.75V16.25C55.7492 16.25 48.25 23.7492 48.25 33H49.75ZM65 17.75C73.4223 17.75 80.25 24.5777 80.25 33H81.75C81.75 23.7492 74.2508 16.25 65 16.25V17.75ZM80.25 33C80.25 41.4224 73.4223 48.25 65 48.25V49.75C74.2508 49.75 81.75 42.2508 81.75 33H80.25ZM65 48.25C56.5777 48.25 49.75 41.4224 49.75 33H48.25C48.25 42.2508 55.7492 49.75 65 49.75V48.25ZM1.75 33C1.75 24.5777 8.57766 17.75 17 17.75V16.25C7.74923 16.25 0.25 23.7492 0.25 33H1.75ZM17 17.75C25.4223 17.75 32.25 24.5777 32.25 33H33.75C33.75 23.7492 26.2508 16.25 17 16.25V17.75ZM32.25 33C32.25 41.4224 25.4223 48.25 17 48.25V49.75C26.2508 49.75 33.75 42.2508 33.75 33H32.25ZM17 48.25C8.57766 48.25 1.75 41.4224 1.75 33H0.25C0.25 42.2508 7.74923 49.75 17 49.75V48.25Z" fill="#C1AC63" fill-opacity="0.15"/>
<defs>
<linearGradient id="paint0_linear_323_527" x1="1.64" y1="1" x2="33.2017" y2="85.1644" gradientUnits="userSpaceOnUse">
<stop stop-color="#604C2D"/>
<stop offset="0.244792" stop-color="#705424"/>
<stop offset="0.526042" stop-color="#C1AC63"/>
<stop offset="0.65625" stop-color="#FEFAC1"/>
<stop offset="1" stop-color="#E8C17D"/>
</linearGradient>
</defs>
</svg>