<svg width="34" height="82" viewBox="0 0 34 82" fill="none" xmlns="http://www.w3.org/2000/svg">
<path d="M16.25 33V49H17.75V33H16.25ZM32.25 17C32.25 25.4223 25.4223 32.25 17 32.25V33.75C26.2508 33.75 33.75 26.2508 33.75 17H32.25ZM17 32.25C8.57766 32.25 1.75 25.4223 1.75 17H0.25C0.25 26.2508 7.74923 33.75 17 33.75V32.25ZM1.75 17C1.75 8.57766 8.57766 1.75 17 1.75V0.25C7.74923 0.25 0.25 7.74923 0.25 17H1.75ZM17 1.75C25.4223 1.75 32.25 8.57766 32.25 17H33.75C33.75 7.74923 26.2508 0.25 17 0.25V1.75ZM32.25 65C32.25 73.4223 25.4223 80.25 17 80.25V81.75C26.2508 81.75 33.75 74.2508 33.75 65H32.25ZM17 80.25C8.57766 80.25 1.75 73.4223 1.75 65H0.25C0.25 74.2508 7.74923 81.75 17 81.75V80.25ZM1.75 65C1.75 56.5777 8.57766 49.75 17 49.75V48.25C7.74923 48.25 0.25 55.7492 0.25 65H1.75ZM17 49.75C25.4223 49.75 32.25 56.5777 32.25 65H33.75C33.75 55.7492 26.2508 48.25 17 48.25V49.75Z" fill="url(#paint0_linear_323_528)"/>
<path d="M16.25 33V49H17.75V33H16.25ZM32.25 17C32.25 25.4223 25.4223 32.25 17 32.25V33.75C26.2508 33.75 33.75 26.2508 33.75 17H32.25ZM17 32.25C8.57766 32.25 1.75 25.4223 1.75 17H0.25C0.25 26.2508 7.74923 33.75 17 33.75V32.25ZM1.75 17C1.75 8.57766 8.57766 1.75 17 1.75V0.25C7.74923 0.25 0.25 7.74923 0.25 17H1.75ZM17 1.75C25.4223 1.75 32.25 8.57766 32.25 17H33.75C33.75 7.74923 26.2508 0.25 17 0.25V1.75ZM32.25 65C32.25 73.4223 25.4223 80.25 17 80.25V81.75C26.2508 81.75 33.75 74.2508 33.75 65H32.25ZM17 80.25C8.57766 80.25 1.75 73.4223 1.75 65H0.25C0.25 74.2508 7.74923 81.75 17 81.75V80.25ZM1.75 65C1.75 56.5777 8.57766 49.75 17 49.75V48.25C7.74923 48.25 0.25 55.7492 0.25 65H1.75ZM17 49.75C25.4223 49.75 32.25 56.5777 32.25 65H33.75C33.75 55.7492 26.2508 48.25 17 48.25V49.75Z" fill="#C1AC63" fill-opacity="0.15"/>
<defs>
<linearGradient id="paint0_linear_323_528" x1="1.16" y1="1" x2="56.3324" y2="23.069" gradientUnits="userSpaceOnUse">
<stop stop-color="#604C2D"/>
<stop offset="0.244792" stop-color="#705424"/>
<stop offset="0.526042" stop-color="#C1AC63"/>
<stop offset="0.65625" stop-color="#FEFAC1"/>
<stop offset="1" stop-color="#E8C17D"/>
</linearGradient>
</defs>
</svg>