<svg width="155" height="138" viewBox="0 0 155 138" fill="none" xmlns="http://www.w3.org/2000/svg">
<path d="M30 137L9.00003 116L9 35L1 27L1.00005 129L9.00003 137H30Z" fill="#383B71"/>
<path d="M25 1L1.00005 1V9H17L25 1Z" fill="#383B71"/>
<path d="M146 17V121L154 113V25L146 17Z" fill="#383B71"/>
<path d="M146 17V121M146 17L154 25V113L146 121M146 17V9L138 1L25 1M146 121V137L30 137M25 1L1.00005 1V9M25 1L17 9H1.00005M1.00005 9L1 27M9.00003 116V34.5L1.00005 26.5V129M9.00003 116L30 137M9.00003 116L9 35L1 27M30 137H9.00003L1.00005 129M1.00005 129L1 27" stroke="url(#paint0_linear_522_621)"/>
<path d="M146 17V121M146 17L154 25V113L146 121M146 17V9L138 1L25 1M146 121V137L30 137M25 1L1.00005 1V9M25 1L17 9H1.00005M1.00005 9L1 27M9.00003 116V34.5L1.00005 26.5V129M9.00003 116L30 137M9.00003 116L9 35L1 27M30 137H9.00003L1.00005 129M1.00005 129L1 27" stroke="#C1AC63" stroke-opacity="0.15"/>
<defs>
<linearGradient id="paint0_linear_522_621" x1="1.765" y1="1" x2="136.827" y2="152.945" gradientUnits="userSpaceOnUse">
<stop stop-color="#604C2D"/>
<stop offset="0.244792" stop-color="#705424"/>
<stop offset="0.526042" stop-color="#C1AC63"/>
<stop offset="0.65625" stop-color="#FEFAC1"/>
<stop offset="1" stop-color="#E8C17D"/>
</linearGradient>
</defs>
</svg>